PathFileType	4	(X/Y/Z)	joints.trc
DataRate	CameraRate	NumFrames	NumMarkers	Units	OrigDataRate	OrigDataStartFrame	OrigNumFrames
30.0	30.0	10	24	m	30.0	61	120
Frame#	Time	pelvis			femur_r			tibia_r			talus_r			calcn_r			toes_r			femur_l			tibia_l			talus_l			calcn_l			toes_l			lumbar_body			thorax			head			scapula_r			humerus_r			ulna_r			radius_r			hand_r			scapula_l			humerus_l			ulna_l			radius_l			hand_l		
		X1	Y1	Z1	X2	Y2	Z2	X3	Y3	Z3	X4	Y4	Z4	X5	Y5	Z5	X6	Y6	Z6	X7	Y7	Z7	X8	Y8	Z8	X9	Y9	Z9	X10	Y10	Z10	X11	Y11	Z11	X12	Y12	Z12	X13	Y13	Z13	X14	Y14	Z14	X15	Y15	Z15	X16	Y16	Z16	X17	Y17	Z17	X18	Y18	Z18	X19	Y19	Z19	X20	Y20	Z20	X21	Y21	Z21	X22	Y22	Z22	X23	Y23	Z23	X24	Y24	Z24
61	2.000000	0.054694	0.933321	0.069614	-0.020687	0.871375	0.001253	-0.093082	0.469043	0.011635	-0.147424	0.074544	-0.152109	-0.159684	0.043891	-0.207351	-0.179622	0.005380	-0.006747	0.126334	0.871267	0.004583	0.186691	0.461663	0.019387	0.269975	0.073007	-0.126595	0.285574	0.040270	-0.186727	0.297138	0.005457	0.010691	0.046877	1.099502	-0.021503	0.021023	1.398696	0.038097	0.018200	1.553269	0.030980	-0.120718	1.420889	-0.022729	-0.110728	1.380935	-0.024191	-0.148188	1.149384	-0.178387	-0.145379	1.150254	-0.191601	-0.174861	0.911457	-0.289625	0.190811	1.402556	0.015600	0.191639	1.369257	-0.002800	0.259126	1.165926	-0.135909	0.268032	1.169757	-0.133840	0.326591	0.918288	-0.195940
62	2.033333	0.059185	0.942847	0.067161	-0.016707	0.881500	-0.001235	-0.087763	0.477172	-0.017001	-0.146871	0.074618	-0.155437	-0.160205	0.041702	-0.210083	-0.177368	0.005723	-0.008970	0.130250	0.881984	-0.000473	0.191729	0.470514	-0.012541	0.270623	0.071571	-0.129743	0.285705	0.036156	-0.188849	0.297297	0.005709	0.008513	0.049847	1.110598	-0.022548	0.025557	1.409975	0.037744	0.023667	1.564270	0.027288	-0.117018	1.431982	-0.023158	-0.108056	1.392090	-0.024559	-0.155945	1.162209	-0.178983	-0.153768	1.163420	-0.192727	-0.193368	0.932871	-0.294481	0.194957	1.413540	0.008807	0.196046	1.380234	-0.009229	0.266614	1.180517	-0.145771	0.275942	1.184559	-0.144038	0.345880	0.939756	-0.212039
63	2.066667	0.063504	0.944474	0.062315	-0.012900	0.883316	-0.005397	-0.083975	0.478891	-0.036058	-0.146717	0.072317	-0.157400	-0.160780	0.037862	-0.211491	-0.176148	0.004310	-0.009814	0.134094	0.884204	-0.006953	0.195699	0.472635	-0.033818	0.272137	0.068249	-0.132265	0.286928	0.031033	-0.190605	0.298560	0.004213	0.006911	0.052923	1.112967	-0.026561	0.030361	1.412324	0.035217	0.029926	1.566864	0.022767	-0.113086	1.433797	-0.022691	-0.105360	1.393737	-0.023738	-0.167241	1.159697	-0.169303	-0.166065	1.161038	-0.182592	-0.221505	0.933523	-0.277056	0.199565	1.414444	0.001604	0.200989	1.381152	-0.016096	0.276114	1.180045	-0.149981	0.285946	1.184314	-0.148249	0.369279	0.944245	-0.214317
64	2.100000	0.067241	0.944501	0.056426	-0.009683	0.883178	-0.010027	-0.081130	0.479200	-0.048896	-0.146179	0.070251	-0.158111	-0.160698	0.034728	-0.211752	-0.174878	0.003020	-0.009835	0.137427	0.884318	-0.013655	0.198930	0.472883	-0.048476	0.273369	0.065855	-0.134424	0.287936	0.027579	-0.192218	0.299580	0.002607	0.005522	0.055671	1.113154	-0.032553	0.035257	1.412622	0.029737	0.036327	1.567272	0.015480	-0.109212	1.433123	-0.022999	-0.102683	1.392719	-0.023205	-0.179409	1.149657	-0.150567	-0.179340	1.150859	-0.162440	-0.251569	0.919881	-0.237959	0.204088	1.412371	-0.007356	0.205805	1.379022	-0.024522	0.285578	1.172057	-0.149569	0.295866	1.176454	-0.147512	0.391668	0.937629	-0.202887
65	2.133333	0.070294	0.944928	0.050283	-0.007104	0.883240	-0.014671	-0.078679	0.479491	-0.057842	-0.145172	0.068897	-0.158175	-0.160027	0.032612	-0.211462	-0.173145	0.002171	-0.009560	0.140192	0.884502	-0.020047	0.201405	0.473135	-0.059198	0.274067	0.064476	-0.136505	0.288486	0.025544	-0.193906	0.299904	0.001339	0.004010	0.057887	1.113376	-0.039615	0.039727	1.413178	0.021713	0.042215	1.567721	0.005445	-0.105657	1.432413	-0.024757	-0.100108	1.391600	-0.023720	-0.190047	1.137636	-0.126329	-0.190935	1.138597	-0.135927	-0.276497	0.901346	-0.180965	0.208085	1.410061	-0.017318	0.210002	1.376579	-0.033760	0.293627	1.161156	-0.145043	0.304178	1.165606	-0.142358	0.408976	0.925855	-0.179179
66	2.166667	0.072718	0.945794	0.044257	-0.005096	0.883668	-0.019211	-0.076472	0.479850	-0.064923	-0.144098	0.067799	-0.157850	-0.159266	0.030872	-0.210821	-0.171295	0.001510	-0.009219	0.142417	0.884998	-0.026027	0.203325	0.473724	-0.067690	0.274376	0.063509	-0.138292	0.288693	0.024065	-0.195350	0.299759	0.000328	0.002540	0.059561	1.113822	-0.046997	0.043473	1.414038	0.012397	0.047359	1.568374	-0.006058	-0.102390	1.432172	-0.027381	-0.097541	1.391029	-0.024916	-0.197593	1.128224	-0.100020	-0.199105	1.129080	-0.106748	-0.291587	0.888057	-0.111989	0.211377	1.407832	-0.027236	0.213432	1.374188	-0.042866	0.300120	1.149892	-0.137743	0.310699	1.154401	-0.134204	0.420377	0.913817	-0.146981
67	2.200000	0.074527	0.946722	0.038614	-0.003596	0.884119	-0.023509	-0.074674	0.480136	-0.070806	-0.143340	0.066790	-0.157175	-0.158808	0.029280	-0.209836	-0.169769	0.001000	-0.008722	0.144156	0.885494	-0.031358	0.204801	0.474367	-0.074481	0.274392	0.062796	-0.139735	0.288633	0.022923	-0.196482	0.299292	-0.000372	0.001248	0.060819	1.114228	-0.054204	0.046327	1.414731	0.002860	0.051616	1.568756	-0.017865	-0.099270	1.432350	-0.030284	-0.094810	1.391038	-0.026342	-0.201058	1.123099	-0.073253	-0.202779	1.124063	-0.076899	-0.294786	0.883584	-0.038900	0.214024	1.405373	-0.036258	0.216157	1.371569	-0.051098	0.305178	1.139405	-0.128606	0.315552	1.144014	-0.124061	0.425855	0.903588	-0.109563
68	2.233333	0.075803	0.947432	0.033485	-0.002475	0.884371	-0.027560	-0.073316	0.480322	-0.075722	-0.142864	0.065913	-0.156390	-0.158594	0.027887	-0.208763	-0.168603	0.000661	-0.008170	0.145490	0.885758	-0.035965	0.205766	0.474841	-0.079615	0.273976	0.062310	-0.140682	0.288124	0.022081	-0.197157	0.298501	-0.000731	0.000386	0.061805	1.114400	-0.060895	0.048319	1.415033	-0.006237	0.055062	1.568706	-0.029042	-0.096297	1.432798	-0.033207	-0.091930	1.391464	-0.027838	-0.200583	1.121783	-0.047387	-0.202118	1.123010	-0.048085	-0.286764	0.886421	0.030717	0.216047	1.402771	-0.043901	0.218175	1.368833	-0.058079	0.308539	1.130885	-0.119246	0.318508	1.135630	-0.113692	0.425173	0.896485	-0.072501
69	2.266667	0.076652	0.947823	0.028967	-0.001663	0.884359	-0.031253	-0.072497	0.480391	-0.079481	-0.142875	0.065138	-0.155514	-0.158848	0.026681	-0.207640	-0.167944	0.000403	-0.007426	0.146457	0.885721	-0.039859	0.206275	0.475045	-0.083355	0.273217	0.061873	-0.141200	0.287231	0.021342	-0.197437	0.297589	-0.000920	-0.000091	0.062561	1.114258	-0.066852	0.049684	1.414934	-0.014587	0.057977	1.568247	-0.039393	-0.093449	1.433373	-0.035923	-0.088969	1.392119	-0.029166	-0.197436	1.122926	-0.022060	-0.198493	1.124533	-0.020092	-0.270775	0.894535	0.094255	0.217617	1.400091	-0.050177	0.219634	1.366037	-0.063796	0.310217	1.124166	-0.109861	0.319615	1.129073	-0.103367	0.418763	0.892189	-0.037678
70	2.300000	0.077193	0.947979	0.025101	-0.001094	0.884193	-0.034529	-0.072013	0.480341	-0.082149	-0.143099	0.064441	-0.154897	-0.159279	0.025667	-0.206845	-0.167586	0.000082	-0.006801	0.147141	0.885496	-0.043123	0.206372	0.474966	-0.086216	0.272445	0.061336	-0.141741	0.286338	0.020556	-0.197778	0.296834	-0.001122	-0.000671	0.063149	1.113937	-0.071861	0.050731	1.414633	-0.021752	0.060586	1.567598	-0.048261	-0.090843	1.434089	-0.038324	-0.086127	1.392979	-0.030385	-0.192901	1.125817	-0.000438	-0.193323	1.127862	0.003567	-0.251114	0.906077	0.143883	0.218952	1.397687	-0.055047	0.220753	1.363535	-0.068241	0.310456	1.119168	-0.101567	0.319223	1.124238	-0.094310	0.408566	0.890048	-0.008891
